<svg xmlns="http://www.w3.org/2000/svg" xmlns:xlink="http://www.w3.org/1999/xlink" buffered-rendering="static" width="1582px" height="21px" viewBox="0,0,1582,21">
<desc>
This file was created by http://www.h2.dion.ne.jp/~defghi/img2svg3/dot2svg3.htm at Thu Mar 31 2022 17:03:57 GMT+0900 (日本標準時)
path count:2
</desc>
<style>
@keyframes cs{
  0%   { opacity:1; }
  50%  { opacity:1; }
  51%  { opacity:0; }
  100% { opacity:0; }
}
path{fill:WindowText}
.a {
    animation: cs .8s infinite;
}
</style>
<path d="m52,0h2v3h2v3h2v3h-2v-3h-2v15h-2v-15h-2v3h-2v-3h2v-3h2zm12,0h2v15h-2zm10,0h2v9h-2zm4,0h2v9h-2zm8,0h2v6h2v-6h2v6h2v3h-2v3h2v3h-2v6h-2v-6h-2v6h-2v-6h-2v-3h2v-3h-2v-3h2zm14,0h2v3h4v3h-4v3h2v3h2v3h-2v3h-2v3h-2v-3h-4v-3h4v-3h-2v-3h-2v-3h2v-3h2zm10,0h2v3h2v3h2v3h2v3h-2v3h-2v3h-2v3h-2v-3h2v-3h2v-3h2v-3h-2v-3h-2v-3h-2zm10,0h2v3h2v3h2v3h2v3h2v3h-10v-3h6v-3h-2v-3h-2v-3h-2zm32,0h2v3h-2v3h-2v3h-2v3h6v3h-10v-3h2v-3h2v-3h2v-3h2zm10,0h2v3h-2v3h-2v3h-2v3h2v3h2v3h2v3h-2v-3h-2v-3h-2v-3h-2v-3h2v-3h2v-3h2zm20,0h6v3h2v15h-2v3h-6v-3h-2v-15h2zm14,0h2v18h2v3h-6v-3h2v-12h-2v-3h2zm10,0h6v3h2v6h-2v3h-2v3h-2v3h6v3h-10v-3h2v-3h2v-3h2v-3h2v-6h-6v3h-2v-3h2zm10,0h10v3h-2v3h-2v3h2v3h2v6h-2v3h-6v-3h-2v-3h2v3h6v-6h-2v-3h-2v-3h2v-3h-6zm18,0h2v12h2v3h-2v6h-2v-6h-6v-6h2v-3h2v-3h2zm6,0h10v3h-8v3h6v3h2v9h-2v3h-6v-3h-2v-3h2v3h6v-9h-8zm16,0h4v3h-4v3h-2v3h6v3h2v6h-2v3h-6v-3h-2v-12h2v-3h2zm8,0h10v6h-2v3h-2v12h-2v-12h2v-3h2v-3h-8zm14,0h6v3h2v6h-2v3h2v6h-2v3h-6v-3h-2v-6h2v-3h-2v-6h2zm12,0h6v3h2v12h-2v3h-2v3h-4v-3h4v-3h2v-3h-6v-3h-2v-6h2zm36,0h2v3h2v3h2v9h-2v3h-2v3h-2v-3h2v-3h2v-9h-2v-3h-2zm16,0h2v3h-2v3h-2v9h2v3h2v3h-2v-3h-2v-3h-2v-9h2v-3h2zm10,0h6v3h-6zm22,0h6v3h2v18h-2v-9h-6v9h-2v-18h2zm10,0h8v3h2v6h-2v3h2v6h-2v3h-8zm14,0h6v3h2v3h-2v-3h-6v15h6v-3h2v3h-2v3h-6v-3h-2v-15h2zm10,0h6v3h2v3h2v9h-2v3h-2v3h-6zm12,0h10v3h-8v6h6v3h-6v6h8v3h-10zm12,0h10v3h-8v6h6v3h-6v9h-2zm14,0h6v3h2v3h-2v-3h-6v15h6v-6h-4v-3h6v12h-8v-3h-2v-15h2zm10,0h2v9h6v-9h2v21h-2v-9h-6v9h-2zm14,0h6v3h-2v15h2v3h-6v-3h2v-15h-2zm14,0h6v3h-2v15h-2v3h-4v-3h-2v-3h2v3h4v-15h-2zm8,0h2v9h2v-3h2v-3h2v-3h2v3h-2v3h-2v3h-2v3h2v3h2v3h2v3h-2v-3h-2v-3h-2v-3h-2v9h-2zm12,0h2v18h8v3h-10zm12,0h2v3h2v3h2v-3h2v-3h2v21h-2v-15h-2v6h-2v-6h-2v15h-2zm12,0h2v6h2v3h2v3h2v-12h2v21h-2v-6h-2v-3h-2v-3h-2v12h-2zm14,0h6v3h2v15h-2v3h-6v-3h-2v-15h2zm10,0h8v3h2v6h-2v3h-6v9h-2zm14,0h6v3h2v12h-2v3h2v3h-2v-3h-2v3h-4v-3h-2v-15h2zm10,0h8v3h2v6h-2v3h-2v3h2v3h2v3h-2v-3h-2v-3h-2v-3h-2v9h-2zm14,0h8v3h-8v6h6v3h2v6h-2v3h-8v-3h8v-6h-6v-3h-2v-6h2zm10,0h10v3h-4v18h-2v-18h-4zm12,0h2v18h6v-18h2v18h-2v3h-6v-3h-2zm12,0h2v15h2v3h2v-3h2v-15h2v15h-2v3h-2v3h-2v-3h-2v-3h-2zm12,0h2v15h2v-6h2v6h2v-15h2v21h-2v-3h-2v-3h-2v3h-2v3h-2zm12,0h2v6h2v3h2v-3h2v-6h2v6h-2v3h-2v3h2v3h2v6h-2v-6h-2v-3h-2v3h-2v6h-2v-6h2v-3h2v-3h-2v-3h-2zm12,0h2v6h2v3h2v-3h2v-6h2v6h-2v3h-2v12h-2v-12h-2v-3h-2zm12,0h10v6h-2v3h-2v3h-2v3h-2v3h8v3h-10v-6h2v-3h2v-3h2v-3h2v-3h-8zm42,0h4v3h-4v3h-2v15h-2v-15h-2v-3h2v3h2v-3h2zm26,0h2v3h-2v3h-2v3h2v9h-2v3h-4v-3h-2v-9h2v-3h4v-3h2zm28,0h2v9h2v-3h4v3h2v9h-2v3h-6v-3h-2zm32,0h2v21h-8v-3h-2v-9h2v-3h4v3h2zm22,0h2v3h2v3h-2v-3h-2v6h2v3h-2v9h-2v-9h-2v-3h2v-6h2zm18,0h2v9h2v-3h4v3h2v12h-2v-12h-4v3h-2v9h-2zm16,0h2v3h-2zm14,0h2v3h-2zm8,0h2v12h2v-3h2v-3h2v3h-2v3h-2v3h2v3h2v3h-2v-3h-2v-3h-2v6h-2zm12,0h4v18h2v3h-6v-3h2v-15h-2zm180,0h2v3h-2v3h2v3h-4v-6h2zm6,0h2v3h-2v3h2v3h-4v-6h2zm4,0h4v6h-2v3h-2v-3h2v-3h-2zm6,0h4v6h-2v3h-2v-3h2v-3h-2zm8,0h6v3h2v6h-2v3h-2v3h-2v-3h2v-3h2v-6h-6v3h-2v-3h2zm58,0h10v6h-2v-3h-6v3h2v3h2v3h-2v3h-2v3h6v-3h2v6h-10v-6h2v-3h2v-3h-2v-3h-2zm14,0h4v3h2v6h-2v3h-4v-3h-2v-6h2zm24,0h6v3h2v15h-2v3h-6v-3h-2v-6h2v-3h4v9h2v-15h-6v3h-2v-3h2zm38,0h2v3h2v3h2v9h-2v-3h-2v6h2v3h-6v-3h2v-6h-2v3h-2v-9h2v-3h2zm46,0h6v3h-2v3h4v6h-4v6h2v3h-6v-3h2v-6h-4v-6h4v-3h-2zm24,0h6v3h2v9h-2v6h2v3h-4v-9h2v-9h-6v9h2v9h-4v-3h2v-6h-2v-9h2zm14,0h2v15h2v-3h2v3h-2v3h-2v3h-2v-3h-2v-3h-2v-3h2v3h2zm20,0h4v6h-4zm12,0h2v3h2v3h2v-3h2v-3h2v3h-2v3h2v3h-4v3h4v3h-4v6h-2v-6h-4v-3h4v-3h-4v-3h2v-3h-2zm26,0h6v3h-4v15h4v3h-6zm12,0h4v3h2v3h-2v3h-2v3h2v3h2v-3h2v3h-2v3h2v3h-2v-3h-2v3h-4v-3h-2v-6h2v-3h-2v-6h2zm24,0h4v6h-2v3h-2v-3h2v-3h-2zm24,0h6v21h-6v-3h4v-15h-4zm10,0h10v21h-10zm24,0h2v3h2v-3h2v3h2v-3h2v3h-2v3h2v3h-2v3h2v3h-2v3h2v3h-2v-3h-2v3h-2v-3h-2v3h-2v-3h2v-3h-2v-3h2v-3h-2v-3h2v-3h-2zm16,0h6v9h-2v6h-2v6h-6v-9h2v-6h2zm8,0h2v6h4v3h2v3h2v3h-2v3h-2v3h-2v-3h2v-3h-6zm16,0h2v3h-2v3h4v3h-4v9h4v-3h2v3h-2v3h-4v-3h-2v-9h-2v-3h2v-3h2zm22,0h6v3h2v3h-2v-3h-6v6h6v3h2v6h-2v3h-6v-3h-2v-3h2v3h6v-6h-6v-3h-2v-6h2zm-1343,3h-1v9h2v-3h2v-3h2v-3zm96,0h-1v6h6v-6zm12,0h-1v6h6v-6zm84,0h-1v6h6v-6zm12,0h-1v6h6v-6zm24,0h-1v15h4v-3h2v-9h-2v-3zm132,0h-1v15h6v-15zm12,0h-1v6h6v-6zm12,0h-1v15h4v-3h-2v-3h2v3h2v-12zm12,0h-1v6h6v-6zm588,0h-1v6h4v-6zm216,0h-1v6h2v-3h2v-3zm86,0h-1v3h2v-3zm-1465,0h2v6h4v3h-4v6h-2v-6h-4v-3h4zm24,0h2v6h2v-3h2v3h-2v3h2v3h-2v-3h-2v6h-2v-6h-2v3h-2v-3h2v-3h-2v-3h2v3h2zm16,0h2v3h-2v3h-2v3h-2v3h-2v3h-2v-3h2v-3h2v-3h2v-3h2zm126,0h2v3h6v3h-4v3h4v3h-2v3h-2v-3h-6v-3h4v-3h-4v-3h2zm818,0h2v3h2v3h-2v9h2v-3h2v3h-2v3h-2v-3h-2v-9h-2v-3h2zm130,0h4v6h-4zm12,0h4v6h-4zm12,0h6v3h2v9h-2v3h-6v-3h-2v-9h2zm58,0h2v3h2v3h2v-3h2v-3h2v3h-2v3h-2v3h2v3h2v3h-2v-3h-2v-3h-2v3h-2v3h-2v-3h2v-3h2v-3h-2v-3h-2zm16,0h2v3h-2zm24,0h2v3h-2v3h6v3h-6v3h2v3h-2v-3h-2v-3h-2v-3h2v-3h2zm10,0h2v3h2v-3h2v3h2v6h-2v3h-2v3h-2v-3h-2v-3h-2v-6h2zm14,0h2v3h2v3h2v3h-2v3h-2v3h-2v-3h-2v-3h-2v-3h2v-3h2zm60,0h2v3h2v3h2v3h-2v3h-2v3h-2v-3h2v-3h-6v-3h6v-3h-2zm16,0h2v3h-2v3h-2v3h-2v3h-2v3h-2v-3h2v-3h2v-3h2v-3h2zm16,0h10v15h-10zm96,0h2v3h2v3h2v3h2v3h2v3h-2v-3h-2v-3h-2v-3h-2v-3h-2zm64,0h2v3h2v3h2v6h-4v3h2v3h-6v-3h2v-3h-4v-6h2v-3h2zm22,0h2v3h2v-3h2v3h2v9h-2v3h-2v3h-2v-3h-2v-3h-2v-9h2zm14,0h2v3h2v3h2v6h-2v3h-2v3h-2v-3h-2v-3h-2v-6h2v-3h2zm10,0h6v6h2v6h-4v3h2v3h-6v-3h2v-3h-4v-6h2zm-1463,3h-1v3h2v-3zm134,0h-1v3h-2v3h4v-6zm910,0h-1v9h6v-9zm216,0h-1v9h6v-9zm108,0h-1v3h2v-3zm4,0h-1v3h2v-3zm32,0h-1v3h2v-3zm-1371,0h10v3h-10zm180,0h10v3h-2v9h2v3h-4v-12h-2v9h-2v3h-2v-3h2v-9h-2zm36,0h6v3h-4v3h4v3h-4v3h4v3h-6zm12,0h8v3h-6v3h4v3h-4v3h6v3h-8zm324,0h8v3h2v9h-2v3h-8zm12,0h2v12h8v3h-10zm26,0h2v3h6v3h-2v3h-2v-3h-6v-3h2zm30,0h2v15h-2zm6,0h6v3h2v12h-8v-3h-2v-3h2v-3h6v-3h-6zm24,0h6v3h-6v9h6v-3h2v3h-2v3h-6v-3h-2v-9h2zm24,0h6v3h2v6h-8v3h6v3h-6v-3h-2v-9h2zm24,0h8v12h-2v3h-6v-3h6v-3h-6v-3h-2v-3h2zm24,0h4v12h2v3h-6v-3h2v-9h-2zm16,0h2v12h-2v3h-4v-3h-2v-3h2v3h4zm30,0h4v3h2v-3h2v3h2v12h-2v-12h-2v12h-2v-12h-2v12h-2zm12,0h2v3h2v-3h4v3h2v12h-2v-12h-4v3h-2v9h-2zm14,0h6v3h2v9h-2v3h-6v-3h-2v-9h2zm10,0h8v3h2v3h-2v3h-6v6h-2zm14,0h8v15h-2v-6h-6v-3h-2v-3h2zm12,0h2v3h2v-3h4v3h-4v3h-2v9h-2zm12,0h8v3h-8v3h6v3h2v3h-2v3h-8v-3h8v-3h-6v-3h-2v-3h2zm22,0h2v12h4v-3h2v-9h2v15h-2v-3h-2v3h-4v-3h-2zm12,0h2v9h2v3h2v-3h2v-9h2v9h-2v3h-2v3h-2v-3h-2v-3h-2zm12,0h2v12h2v-6h2v6h2v-12h2v12h-2v3h-2v-3h-2v3h-2v-3h-2zm12,0h4v3h4v-3h2v3h-2v3h-2v6h4v3h-4v-3h-4v3h-2v-3h2v-3h2v-6h-4zm12,0h2v3h2v3h4v-6h2v6h-2v3h-2v3h-2v3h-4v-3h4v-6h-2v-3h-2zm12,0h10v3h-2v3h-2v3h-2v3h6v3h-10v-3h2v-3h2v-3h2v-3h-6zm124,0h2v3h2v3h2v3h-10v-3h2v-3h2zm104,0h2v6h4v-6h2v6h2v3h-2v-3h-2v3h-4v6h-2zm-1195,3h-1v3h2v-3zm98,0h-1v3h-2v3h-2v3h6v-9zm500,0h-1v9h6v-9zm48,0h-1v9h4v-9zm38,0h-1v3h-2v6h6v-9zm22,0h-1v9h6v-6h-2v-3zm12,0h-1v3h6v-3zm24,0h-1v3h6v-3zm96,0h-1v9h6v-9zm12,0h-1v3h6v-3zm12,0h-1v3h6v-3zm230,0h-1v3h2v-3zm288,0h-1v3h2v-3zm22,0h-1v3h4v-3zm-1479,0h10v3h-10zm1200,0h10v3h-10zm206,0h4v6h-4zm-1315,3h-1v3h2v-3zm152,0h-1v6h6v-6zm24,0h-1v6h6v-6zm108,0h-1v6h6v-6zm804,0h-1v6h2v-6zm192,0h-1v6h4v-3h-2v-3zm84,0h-1v3h2v-3zm4,0h-1v3h2v-3zm24,0h-1v3h2v-3zm-1363,0h10v3h-10zm612,0h4v3h-4zm362,0h4v6h-2v3h-2v-3h2v-3h-2zm12,0h4v6h-2v3h-2v-3h2v-3h-2zm12,0h4v6h-4zm-371,3h-1v3h6v-3zm710,0h-1v3h2v-3zm-1167,0h4v6h-4zm914,0h2v3h-2zm122,0h4v6h-4zm-1274,3h2v3h-2zm56,0h10v3h-10zm24,0h10v3h-10zm952,0h2v3h-2zm296,0h10v3h-10z"/>
<path d="m1572,18h10v3h-10z" class="a"/>
</svg>