<svg xmlns="http://www.w3.org/2000/svg" viewBox="0,0,1582,21"><style>@keyframes cs{0%,50%{opacity:1;text-decoration:normal}51%,to{opacity:0;text-decoration:normal}}path{fill:WindowText}</style><path d="M52 0h2v3h2v3h2v3h-2V6h-2v15h-2V6h-2v3h-2V6h2V3h2zm12 0h2v15h-2zm10 0h2v9h-2zm4 0h2v9h-2zm8 0h2v6h2V0h2v6h2v3h-2v3h2v3h-2v6h-2v-6h-2v6h-2v-6h-2v-3h2V9h-2V6h2zm14 0h2v3h4v3h-4v3h2v3h2v3h-2v3h-2v3h-2v-3h-4v-3h4v-3h-2V9h-2V6h2V3h2zm10 0h2v3h2v3h2v3h2v3h-2v3h-2v3h-2v3h-2v-3h2v-3h2v-3h2V9h-2V6h-2V3h-2zm10 0h2v3h2v3h2v3h2v3h2v3h-10v-3h6V9h-2V6h-2V3h-2zm32 0h2v3h-2v3h-2v3h-2v3h6v3h-10v-3h2V9h2V6h2V3h2zm10 0h2v3h-2v3h-2v3h-2v3h2v3h2v3h2v3h-2v-3h-2v-3h-2v-3h-2V9h2V6h2V3h2zm20 0h6v3h2v15h-2v3h-6v-3h-2V3h2zm14 0h2v18h2v3h-6v-3h2V6h-2V3h2zm10 0h6v3h2v6h-2v3h-2v3h-2v3h6v3h-10v-3h2v-3h2v-3h2V9h2V3h-6v3h-2V3h2zm10 0h10v3h-2v3h-2v3h2v3h2v6h-2v3h-6v-3h-2v-3h2v3h6v-6h-2V9h-2V6h2V3h-6zm18 0h2v12h2v3h-2v6h-2v-6h-6V9h2V6h2V3h2zm6 0h10v3h-8v3h6v3h2v9h-2v3h-6v-3h-2v-3h2v3h6V9h-8zm16 0h4v3h-4v3h-2v3h6v3h2v6h-2v3h-6v-3h-2V6h2V3h2zm8 0h10v6h-2v3h-2v12h-2V9h2V6h2V3h-8zm14 0h6v3h2v6h-2v3h2v6h-2v3h-6v-3h-2v-6h2V9h-2V3h2zm12 0h6v3h2v12h-2v3h-2v3h-4v-3h4v-3h2v-3h-6V9h-2V3h2zm36 0h2v3h2v3h2v9h-2v3h-2v3h-2v-3h2v-3h2V6h-2V3h-2zm16 0h2v3h-2v3h-2v9h2v3h2v3h-2v-3h-2v-3h-2V6h2V3h2zm10 0h6v3h-6zm22 0h6v3h2v18h-2v-9h-6v9h-2V3h2zm10 0h8v3h2v6h-2v3h2v6h-2v3h-8zm14 0h6v3h2v3h-2V3h-6v15h6v-3h2v3h-2v3h-6v-3h-2V3h2zm10 0h6v3h2v3h2v9h-2v3h-2v3h-6zm12 0h10v3h-8v6h6v3h-6v6h8v3h-10zm12 0h10v3h-8v6h6v3h-6v9h-2zm14 0h6v3h2v3h-2V3h-6v15h6v-6h-4V9h6v12h-8v-3h-2V3h2zm10 0h2v9h6V0h2v21h-2v-9h-6v9h-2zm14 0h6v3h-2v15h2v3h-6v-3h2V3h-2zm14 0h6v3h-2v15h-2v3h-4v-3h-2v-3h2v3h4V3h-2zm8 0h2v9h2V6h2V3h2V0h2v3h-2v3h-2v3h-2v3h2v3h2v3h2v3h-2v-3h-2v-3h-2v-3h-2v9h-2zm12 0h2v18h8v3h-10zm12 0h2v3h2v3h2V3h2V0h2v21h-2V6h-2v6h-2V6h-2v15h-2zm12 0h2v6h2v3h2v3h2V0h2v21h-2v-6h-2v-3h-2V9h-2v12h-2zm14 0h6v3h2v15h-2v3h-6v-3h-2V3h2zm10 0h8v3h2v6h-2v3h-6v9h-2zm14 0h6v3h2v12h-2v3h2v3h-2v-3h-2v3h-4v-3h-2V3h2zm10 0h8v3h2v6h-2v3h-2v3h2v3h2v3h-2v-3h-2v-3h-2v-3h-2v9h-2zm14 0h8v3h-8v6h6v3h2v6h-2v3h-8v-3h8v-6h-6V9h-2V3h2zm10 0h10v3h-4v18h-2V3h-4zm12 0h2v18h6V0h2v18h-2v3h-6v-3h-2zm12 0h2v15h2v3h2v-3h2V0h2v15h-2v3h-2v3h-2v-3h-2v-3h-2zm12 0h2v15h2V9h2v6h2V0h2v21h-2v-3h-2v-3h-2v3h-2v3h-2zm12 0h2v6h2v3h2V6h2V0h2v6h-2v3h-2v3h2v3h2v6h-2v-6h-2v-3h-2v3h-2v6h-2v-6h2v-3h2V9h-2V6h-2zm12 0h2v6h2v3h2V6h2V0h2v6h-2v3h-2v12h-2V9h-2V6h-2zm12 0h10v6h-2v3h-2v3h-2v3h-2v3h8v3h-10v-6h2v-3h2V9h2V6h2V3h-8zm42 0h4v3h-4v3h-2v15h-2V6h-2V3h2v3h2V3h2zm26 0h2v3h-2v3h-2v3h2v9h-2v3h-4v-3h-2V9h2V6h4V3h2zm28 0h2v9h2V6h4v3h2v9h-2v3h-6v-3h-2zm32 0h2v21h-8v-3h-2V9h2V6h4v3h2zm22 0h2v3h2v3h-2V3h-2v6h2v3h-2v9h-2v-9h-2V9h2V3h2zm18 0h2v9h2V6h4v3h2v12h-2V9h-4v3h-2v9h-2zm16 0h2v3h-2zm14 0h2v3h-2zm8 0h2v12h2V9h2V6h2v3h-2v3h-2v3h2v3h2v3h-2v-3h-2v-3h-2v6h-2zm12 0h4v18h2v3h-6v-3h2V3h-2zm180 0h2v3h-2v3h2v3h-4V3h2zm6 0h2v3h-2v3h2v3h-4V3h2zm4 0h4v6h-2v3h-2V6h2V3h-2zm6 0h4v6h-2v3h-2V6h2V3h-2zm8 0h6v3h2v6h-2v3h-2v3h-2v-3h2V9h2V3h-6v3h-2V3h2zm58 0h10v6h-2V3h-6v3h2v3h2v3h-2v3h-2v3h6v-3h2v6h-10v-6h2v-3h2V9h-2V6h-2zm14 0h4v3h2v6h-2v3h-4V9h-2V3h2zm24 0h6v3h2v15h-2v3h-6v-3h-2v-6h2V9h4v9h2V3h-6v3h-2V3h2zm38 0h2v3h2v3h2v9h-2v-3h-2v6h2v3h-6v-3h2v-6h-2v3h-2V6h2V3h2zm46 0h6v3h-2v3h4v6h-4v6h2v3h-6v-3h2v-6h-4V6h4V3h-2zm24 0h6v3h2v9h-2v6h2v3h-4v-9h2V3h-6v9h2v9h-4v-3h2v-6h-2V3h2zm14 0h2v15h2v-3h2v3h-2v3h-2v3h-2v-3h-2v-3h-2v-3h2v3h2zm20 0h4v6h-4zm12 0h2v3h2v3h2V3h2V0h2v3h-2v3h2v3h-4v3h4v3h-4v6h-2v-6h-4v-3h4V9h-4V6h2V3h-2zm26 0h6v3h-4v15h4v3h-6zm12 0h4v3h2v3h-2v3h-2v3h2v3h2v-3h2v3h-2v3h2v3h-2v-3h-2v3h-4v-3h-2v-6h2V9h-2V3h2zm24 0h4v6h-2v3h-2V6h2V3h-2zm24 0h6v21h-6v-3h4V3h-4zm10 0h10v21h-10zm24 0h2v3h2V0h2v3h2V0h2v3h-2v3h2v3h-2v3h2v3h-2v3h2v3h-2v-3h-2v3h-2v-3h-2v3h-2v-3h2v-3h-2v-3h2V9h-2V6h2V3h-2zm16 0h6v9h-2v6h-2v6h-6v-9h2V6h2zm8 0h2v6h4v3h2v3h2v3h-2v3h-2v3h-2v-3h2v-3h-6zm16 0h2v3h-2v3h4v3h-4v9h4v-3h2v3h-2v3h-4v-3h-2V9h-2V6h2V3h2zm22 0h6v3h2v3h-2V3h-6v6h6v3h2v6h-2v3h-6v-3h-2v-3h2v3h6v-6h-6V9h-2V3h2zM183 3h-1v9h2V9h2V6h2V3zm96 0h-1v6h6V3zm12 0h-1v6h6V3zm84 0h-1v6h6V3zm12 0h-1v6h6V3zm24 0h-1v15h4v-3h2V6h-2V3zm132 0h-1v15h6V3zm12 0h-1v6h6V3zm12 0h-1v15h4v-3h-2v-3h2v3h2V3zm12 0h-1v6h6V3zm588 0h-1v6h4V3zm216 0h-1v6h2V6h2V3zm86 0h-1v3h2V3zM4 3h2v6h4v3H6v6H4v-6H0V9h4zm24 0h2v6h2V6h2v3h-2v3h2v3h-2v-3h-2v6h-2v-6h-2v3h-2v-3h2V9h-2V6h2v3h2zm16 0h2v3h-2v3h-2v3h-2v3h-2v3h-2v-3h2v-3h2V9h2V6h2zm126 0h2v3h6v3h-4v3h4v3h-2v3h-2v-3h-6v-3h4V9h-4V6h2zm818 0h2v3h2v3h-2v9h2v-3h2v3h-2v3h-2v-3h-2V9h-2V6h2zm130 0h4v6h-4zm12 0h4v6h-4zm12 0h6v3h2v9h-2v3h-6v-3h-2V6h2zm58 0h2v3h2v3h2V6h2V3h2v3h-2v3h-2v3h2v3h2v3h-2v-3h-2v-3h-2v3h-2v3h-2v-3h2v-3h2V9h-2V6h-2zm16 0h2v3h-2zm24 0h2v3h-2v3h6v3h-6v3h2v3h-2v-3h-2v-3h-2V9h2V6h2zm10 0h2v3h2V3h2v3h2v6h-2v3h-2v3h-2v-3h-2v-3h-2V6h2zm14 0h2v3h2v3h2v3h-2v3h-2v3h-2v-3h-2v-3h-2V9h2V6h2zm60 0h2v3h2v3h2v3h-2v3h-2v3h-2v-3h2v-3h-6V9h6V6h-2zm16 0h2v3h-2v3h-2v3h-2v3h-2v3h-2v-3h2v-3h2V9h2V6h2zm16 0h10v15h-10zm96 0h2v3h2v3h2v3h2v3h2v3h-2v-3h-2v-3h-2V9h-2V6h-2zm64 0h2v3h2v3h2v6h-4v3h2v3h-6v-3h2v-3h-4V9h2V6h2zm22 0h2v3h2V3h2v3h2v9h-2v3h-2v3h-2v-3h-2v-3h-2V6h2zm14 0h2v3h2v3h2v6h-2v3h-2v3h-2v-3h-2v-3h-2V9h2V6h2zm10 0h6v6h2v6h-4v3h2v3h-6v-3h2v-3h-4V9h2zM99 6h-1v3h2V6zm134 0h-1v3h-2v3h4V6zm910 0h-1v9h6V6zm216 0h-1v9h6V6zm108 0h-1v3h2V6zm4 0h-1v3h2V6zm32 0h-1v3h2V6zM132 6h10v3h-10zm180 0h10v3h-2v9h2v3h-4V9h-2v9h-2v3h-2v-3h2V9h-2zm36 0h6v3h-4v3h4v3h-4v3h4v3h-6zm12 0h8v3h-6v3h4v3h-4v3h6v3h-8zm324 0h8v3h2v9h-2v3h-8zm12 0h2v12h8v3h-10zm26 0h2v3h6v3h-2v3h-2v-3h-6V9h2zm30 0h2v15h-2zm6 0h6v3h2v12h-8v-3h-2v-3h2v-3h6V9h-6zm24 0h6v3h-6v9h6v-3h2v3h-2v3h-6v-3h-2V9h2zm24 0h6v3h2v6h-8v3h6v3h-6v-3h-2V9h2zm24 0h8v12h-2v3h-6v-3h6v-3h-6v-3h-2V9h2zm24 0h4v12h2v3h-6v-3h2V9h-2zm16 0h2v12h-2v3h-4v-3h-2v-3h2v3h4zm30 0h4v3h2V6h2v3h2v12h-2V9h-2v12h-2V9h-2v12h-2zm12 0h2v3h2V6h4v3h2v12h-2V9h-4v3h-2v9h-2zm14 0h6v3h2v9h-2v3h-6v-3h-2V9h2zm10 0h8v3h2v3h-2v3h-6v6h-2zm14 0h8v15h-2v-6h-6v-3h-2V9h2zm12 0h2v3h2V6h4v3h-4v3h-2v9h-2zm12 0h8v3h-8v3h6v3h2v3h-2v3h-8v-3h8v-3h-6v-3h-2V9h2zm22 0h2v12h4v-3h2V6h2v15h-2v-3h-2v3h-4v-3h-2zm12 0h2v9h2v3h2v-3h2V6h2v9h-2v3h-2v3h-2v-3h-2v-3h-2zm12 0h2v12h2v-6h2v6h2V6h2v12h-2v3h-2v-3h-2v3h-2v-3h-2zm12 0h4v3h4V6h2v3h-2v3h-2v6h4v3h-4v-3h-4v3h-2v-3h2v-3h2V9h-4zm12 0h2v3h2v3h4V6h2v6h-2v3h-2v3h-2v3h-4v-3h4v-6h-2V9h-2zm12 0h10v3h-2v3h-2v3h-2v3h6v3h-10v-3h2v-3h2v-3h2V9h-6zm124 0h2v3h2v3h2v3h-10v-3h2V9h2zm104 0h2v6h4V6h2v6h2v3h-2v-3h-2v3h-4v6h-2zM89 9h-1v3h2V9zm98 0h-1v3h-2v3h-2v3h6V9zm500 0h-1v9h6V9zm48 0h-1v9h4V9zm38 0h-1v3h-2v6h6V9zm22 0h-1v9h6v-6h-2V9zm12 0h-1v3h6V9zm24 0h-1v3h6V9zm96 0h-1v9h6V9zm12 0h-1v3h6V9zm12 0h-1v3h6V9zm230 0h-1v3h2V9zm288 0h-1v3h2V9zm22 0h-1v3h4V9zM12 9h10v3H12zm1200 0h10v3h-10zm206 0h4v6h-4zM103 12h-1v3h2v-3zm152 0h-1v6h6v-6zm24 0h-1v6h6v-6zm108 0h-1v6h6v-6zm804 0h-1v6h2v-6zm192 0h-1v6h4v-3h-2v-3zm84 0h-1v3h2v-3zm4 0h-1v3h2v-3zm24 0h-1v3h2v-3zM132 12h10v3h-10zm612 0h4v3h-4zm362 0h4v6h-2v3h-2v-3h2v-3h-2zm12 0h4v6h-2v3h-2v-3h2v-3h-2zm12 0h4v6h-4zm-371 3h-1v3h6v-3zm710 0h-1v3h2v-3zM302 15h4v6h-4zm914 0h2v3h-2zm122 0h4v6h-4zM64 18h2v3h-2zm56 0h10v3h-10zm24 0h10v3h-10zm952 0h2v3h-2zm296 0h10v3h-10z"/><path d="M1572 18h10v3h-10z" style="animation:cs .8s infinite"/></svg>